%TF.GenerationSoftware,KiCad,Pcbnew,9.0.2*%
%TF.CreationDate,2026-01-04T09:32:38+09:00*%
%TF.ProjectId,BMI088,424d4930-3838-42e6-9b69-6361645f7063,rev?*%
%TF.SameCoordinates,Original*%
%TF.FileFunction,Copper,L2,Bot*%
%TF.FilePolarity,Positive*%
%FSLAX46Y46*%
G04 Gerber Fmt 4.6, Leading zero omitted, Abs format (unit mm)*
G04 Created by KiCad (PCBNEW 9.0.2) date 2026-01-04 09:32:38*
%MOMM*%
%LPD*%
G01*
G04 APERTURE LIST*
%TA.AperFunction,ComponentPad*%
%ADD10R,1.700000X1.700000*%
%TD*%
%TA.AperFunction,ComponentPad*%
%ADD11C,1.700000*%
%TD*%
%TA.AperFunction,ViaPad*%
%ADD12C,0.600000*%
%TD*%
%TA.AperFunction,Conductor*%
%ADD13C,0.200000*%
%TD*%
G04 APERTURE END LIST*
D10*
%TO.P,J1,1,Pin_1*%
%TO.N,GND*%
X101450000Y-55190000D03*
D11*
%TO.P,J1,2,Pin_2*%
%TO.N,SDA*%
X101450000Y-57730000D03*
%TO.P,J1,3,Pin_3*%
%TO.N,SCL*%
X101450000Y-60270000D03*
%TO.P,J1,4,Pin_4*%
%TO.N,VIN*%
X101450000Y-62810000D03*
%TD*%
D12*
%TO.N,GND*%
X104000000Y-61400000D03*
X108600000Y-52100000D03*
X104100000Y-52100000D03*
X110000000Y-65300000D03*
X103000000Y-64100000D03*
X106500000Y-66200000D03*
X109000000Y-56400000D03*
X108500000Y-60000000D03*
X104400000Y-57500000D03*
%TO.N,SCL*%
X106500000Y-61750000D03*
%TD*%
D13*
%TO.N,SCL*%
X105850000Y-62400000D02*
X103580000Y-62400000D01*
X106500000Y-61750000D02*
X105850000Y-62400000D01*
X103580000Y-62400000D02*
X101450000Y-60270000D01*
%TD*%
%TA.AperFunction,Conductor*%
%TO.N,GND*%
G36*
X112485148Y-51514852D02*
G01*
X112499500Y-51549500D01*
X112499500Y-66450500D01*
X112485148Y-66485148D01*
X112450500Y-66499500D01*
X100549500Y-66499500D01*
X100514852Y-66485148D01*
X100500500Y-66450500D01*
X100500500Y-63441354D01*
X100514852Y-63406706D01*
X100549500Y-63392354D01*
X100584148Y-63406706D01*
X100590239Y-63414128D01*
X100634023Y-63479655D01*
X100780345Y-63625977D01*
X100952402Y-63740941D01*
X101143580Y-63820130D01*
X101346535Y-63860500D01*
X101346538Y-63860500D01*
X101553462Y-63860500D01*
X101553465Y-63860500D01*
X101756420Y-63820130D01*
X101947598Y-63740941D01*
X102119655Y-63625977D01*
X102265977Y-63479655D01*
X102380941Y-63307598D01*
X102460130Y-63116420D01*
X102500500Y-62913465D01*
X102500500Y-62706535D01*
X102460130Y-62503580D01*
X102380941Y-62312402D01*
X102265977Y-62140345D01*
X102119655Y-61994023D01*
X101947598Y-61879059D01*
X101947596Y-61879058D01*
X101756423Y-61799871D01*
X101756417Y-61799869D01*
X101674572Y-61783589D01*
X101553465Y-61759500D01*
X101346535Y-61759500D01*
X101245520Y-61779592D01*
X101143582Y-61799869D01*
X101143576Y-61799871D01*
X100952403Y-61879058D01*
X100780345Y-61994022D01*
X100634022Y-62140345D01*
X100590242Y-62205868D01*
X100559059Y-62226703D01*
X100522277Y-62219387D01*
X100501442Y-62188204D01*
X100500500Y-62178645D01*
X100500500Y-60901354D01*
X100514852Y-60866706D01*
X100549500Y-60852354D01*
X100584148Y-60866706D01*
X100590239Y-60874128D01*
X100634023Y-60939655D01*
X100780345Y-61085977D01*
X100952402Y-61200941D01*
X101143580Y-61280130D01*
X101346535Y-61320500D01*
X101346538Y-61320500D01*
X101553462Y-61320500D01*
X101553465Y-61320500D01*
X101756420Y-61280130D01*
X101923270Y-61211018D01*
X101960772Y-61211018D01*
X101976669Y-61221640D01*
X103339540Y-62584511D01*
X103395489Y-62640460D01*
X103464011Y-62680021D01*
X103499478Y-62689524D01*
X103540436Y-62700500D01*
X103540438Y-62700500D01*
X105889564Y-62700500D01*
X105916230Y-62693354D01*
X105965989Y-62680021D01*
X106034511Y-62640460D01*
X106090460Y-62584511D01*
X106410118Y-62264851D01*
X106444766Y-62250500D01*
X106565895Y-62250500D01*
X106565895Y-62250499D01*
X106693186Y-62216392D01*
X106807314Y-62150500D01*
X106900500Y-62057314D01*
X106966392Y-61943186D01*
X107000499Y-61815895D01*
X107000500Y-61815895D01*
X107000500Y-61684105D01*
X107000499Y-61684104D01*
X106966392Y-61556815D01*
X106966391Y-61556811D01*
X106900499Y-61442685D01*
X106807314Y-61349500D01*
X106693188Y-61283608D01*
X106693184Y-61283607D01*
X106565895Y-61249500D01*
X106565892Y-61249500D01*
X106434108Y-61249500D01*
X106434105Y-61249500D01*
X106306815Y-61283607D01*
X106306811Y-61283608D01*
X106192685Y-61349500D01*
X106192685Y-61349501D01*
X106099501Y-61442685D01*
X106099500Y-61442685D01*
X106033608Y-61556811D01*
X106033607Y-61556815D01*
X105999500Y-61684104D01*
X105999500Y-61805232D01*
X105985148Y-61839880D01*
X105739881Y-62085148D01*
X105705233Y-62099500D01*
X103724767Y-62099500D01*
X103690119Y-62085148D01*
X102401640Y-60796669D01*
X102387288Y-60762021D01*
X102391018Y-60743269D01*
X102399500Y-60722792D01*
X102460130Y-60576420D01*
X102500500Y-60373465D01*
X102500500Y-60166535D01*
X102460130Y-59963580D01*
X102380941Y-59772402D01*
X102265977Y-59600345D01*
X102119655Y-59454023D01*
X101947598Y-59339059D01*
X101947596Y-59339058D01*
X101756423Y-59259871D01*
X101756417Y-59259869D01*
X101674572Y-59243589D01*
X101553465Y-59219500D01*
X101346535Y-59219500D01*
X101245520Y-59239592D01*
X101143582Y-59259869D01*
X101143576Y-59259871D01*
X100952403Y-59339058D01*
X100780345Y-59454022D01*
X100634022Y-59600345D01*
X100590242Y-59665868D01*
X100559059Y-59686703D01*
X100522277Y-59679387D01*
X100501442Y-59648204D01*
X100500500Y-59638645D01*
X100500500Y-58361354D01*
X100514852Y-58326706D01*
X100549500Y-58312354D01*
X100584148Y-58326706D01*
X100590239Y-58334128D01*
X100634023Y-58399655D01*
X100780345Y-58545977D01*
X100952402Y-58660941D01*
X101143580Y-58740130D01*
X101346535Y-58780500D01*
X101346538Y-58780500D01*
X101553462Y-58780500D01*
X101553465Y-58780500D01*
X101756420Y-58740130D01*
X101947598Y-58660941D01*
X102119655Y-58545977D01*
X102265977Y-58399655D01*
X102380941Y-58227598D01*
X102460130Y-58036420D01*
X102500500Y-57833465D01*
X102500500Y-57626535D01*
X102460130Y-57423580D01*
X102380941Y-57232402D01*
X102265977Y-57060345D01*
X102119655Y-56914023D01*
X101947598Y-56799059D01*
X101947596Y-56799058D01*
X101756423Y-56719871D01*
X101756417Y-56719869D01*
X101674572Y-56703589D01*
X101553465Y-56679500D01*
X101346535Y-56679500D01*
X101245520Y-56699592D01*
X101143582Y-56719869D01*
X101143576Y-56719871D01*
X100952403Y-56799058D01*
X100780345Y-56914022D01*
X100634022Y-57060345D01*
X100590242Y-57125868D01*
X100559059Y-57146703D01*
X100522277Y-57139387D01*
X100501442Y-57108204D01*
X100500500Y-57098645D01*
X100500500Y-51549500D01*
X100514852Y-51514852D01*
X100549500Y-51500500D01*
X112450500Y-51500500D01*
X112485148Y-51514852D01*
G37*
%TD.AperFunction*%
%TD*%
M02*
