%TF.GenerationSoftware,KiCad,Pcbnew,9.0.2*%
%TF.CreationDate,2026-01-04T09:32:38+09:00*%
%TF.ProjectId,BMI088,424d4930-3838-42e6-9b69-6361645f7063,rev?*%
%TF.SameCoordinates,Original*%
%TF.FileFunction,Legend,Top*%
%TF.FilePolarity,Positive*%
%FSLAX46Y46*%
G04 Gerber Fmt 4.6, Leading zero omitted, Abs format (unit mm)*
G04 Created by KiCad (PCBNEW 9.0.2) date 2026-01-04 09:32:38*
%MOMM*%
%LPD*%
G01*
G04 APERTURE LIST*
%ADD10C,0.100000*%
%ADD11C,0.150000*%
%ADD12C,0.060000*%
%ADD13C,0.200000*%
%ADD14C,0.127000*%
%ADD15C,0.120000*%
G04 APERTURE END LIST*
D10*
X110108646Y-58872419D02*
X110775312Y-58872419D01*
X110775312Y-58872419D02*
X110108646Y-59872419D01*
X110108646Y-59872419D02*
X110775312Y-59872419D01*
D11*
X111275000Y-59000000D02*
G75*
G02*
X111125000Y-59000000I-75000J0D01*
G01*
X111125000Y-59000000D02*
G75*
G02*
X111275000Y-59000000I75000J0D01*
G01*
D10*
X111500000Y-59000000D02*
G75*
G02*
X110900000Y-59000000I-300000J0D01*
G01*
X110900000Y-59000000D02*
G75*
G02*
X111500000Y-59000000I300000J0D01*
G01*
X112094360Y-57296228D02*
X112094360Y-57772419D01*
X111761027Y-56772419D02*
X112094360Y-57296228D01*
X112094360Y-57296228D02*
X112427693Y-56772419D01*
X111200000Y-57500000D02*
X110800000Y-57900000D01*
X111200000Y-58700000D02*
X111200000Y-57500000D01*
X111200000Y-57500000D02*
X111600000Y-57900000D01*
X112008646Y-59472419D02*
X112675312Y-60472419D01*
X112675312Y-59472419D02*
X112008646Y-60472419D01*
X112700000Y-59000000D02*
X112300000Y-58600000D01*
X112700000Y-59000000D02*
X112300000Y-59400000D01*
X111500000Y-59000000D02*
X112700000Y-59000000D01*
D11*
X105954819Y-59761904D02*
X106764342Y-59761904D01*
X106764342Y-59761904D02*
X106859580Y-59714285D01*
X106859580Y-59714285D02*
X106907200Y-59666666D01*
X106907200Y-59666666D02*
X106954819Y-59571428D01*
X106954819Y-59571428D02*
X106954819Y-59380952D01*
X106954819Y-59380952D02*
X106907200Y-59285714D01*
X106907200Y-59285714D02*
X106859580Y-59238095D01*
X106859580Y-59238095D02*
X106764342Y-59190476D01*
X106764342Y-59190476D02*
X105954819Y-59190476D01*
X106954819Y-58190476D02*
X106954819Y-58761904D01*
X106954819Y-58476190D02*
X105954819Y-58476190D01*
X105954819Y-58476190D02*
X106097676Y-58571428D01*
X106097676Y-58571428D02*
X106192914Y-58666666D01*
X106192914Y-58666666D02*
X106240533Y-58761904D01*
D12*
X109143832Y-64566666D02*
X109162880Y-64585714D01*
X109162880Y-64585714D02*
X109181927Y-64642856D01*
X109181927Y-64642856D02*
X109181927Y-64680952D01*
X109181927Y-64680952D02*
X109162880Y-64738095D01*
X109162880Y-64738095D02*
X109124784Y-64776190D01*
X109124784Y-64776190D02*
X109086689Y-64795237D01*
X109086689Y-64795237D02*
X109010499Y-64814285D01*
X109010499Y-64814285D02*
X108953356Y-64814285D01*
X108953356Y-64814285D02*
X108877165Y-64795237D01*
X108877165Y-64795237D02*
X108839070Y-64776190D01*
X108839070Y-64776190D02*
X108800975Y-64738095D01*
X108800975Y-64738095D02*
X108781927Y-64680952D01*
X108781927Y-64680952D02*
X108781927Y-64642856D01*
X108781927Y-64642856D02*
X108800975Y-64585714D01*
X108800975Y-64585714D02*
X108820022Y-64566666D01*
X108781927Y-64204761D02*
X108781927Y-64395237D01*
X108781927Y-64395237D02*
X108972403Y-64414285D01*
X108972403Y-64414285D02*
X108953356Y-64395237D01*
X108953356Y-64395237D02*
X108934308Y-64357142D01*
X108934308Y-64357142D02*
X108934308Y-64261904D01*
X108934308Y-64261904D02*
X108953356Y-64223809D01*
X108953356Y-64223809D02*
X108972403Y-64204761D01*
X108972403Y-64204761D02*
X109010499Y-64185714D01*
X109010499Y-64185714D02*
X109105737Y-64185714D01*
X109105737Y-64185714D02*
X109143832Y-64204761D01*
X109143832Y-64204761D02*
X109162880Y-64223809D01*
X109162880Y-64223809D02*
X109181927Y-64261904D01*
X109181927Y-64261904D02*
X109181927Y-64357142D01*
X109181927Y-64357142D02*
X109162880Y-64395237D01*
X109162880Y-64395237D02*
X109143832Y-64414285D01*
X104143832Y-64566666D02*
X104162880Y-64585714D01*
X104162880Y-64585714D02*
X104181927Y-64642856D01*
X104181927Y-64642856D02*
X104181927Y-64680952D01*
X104181927Y-64680952D02*
X104162880Y-64738095D01*
X104162880Y-64738095D02*
X104124784Y-64776190D01*
X104124784Y-64776190D02*
X104086689Y-64795237D01*
X104086689Y-64795237D02*
X104010499Y-64814285D01*
X104010499Y-64814285D02*
X103953356Y-64814285D01*
X103953356Y-64814285D02*
X103877165Y-64795237D01*
X103877165Y-64795237D02*
X103839070Y-64776190D01*
X103839070Y-64776190D02*
X103800975Y-64738095D01*
X103800975Y-64738095D02*
X103781927Y-64680952D01*
X103781927Y-64680952D02*
X103781927Y-64642856D01*
X103781927Y-64642856D02*
X103800975Y-64585714D01*
X103800975Y-64585714D02*
X103820022Y-64566666D01*
X103915260Y-64223809D02*
X104181927Y-64223809D01*
X103762880Y-64319047D02*
X104048594Y-64414285D01*
X104048594Y-64414285D02*
X104048594Y-64166666D01*
X106433333Y-52143832D02*
X106414285Y-52162880D01*
X106414285Y-52162880D02*
X106357143Y-52181927D01*
X106357143Y-52181927D02*
X106319047Y-52181927D01*
X106319047Y-52181927D02*
X106261904Y-52162880D01*
X106261904Y-52162880D02*
X106223809Y-52124784D01*
X106223809Y-52124784D02*
X106204762Y-52086689D01*
X106204762Y-52086689D02*
X106185714Y-52010499D01*
X106185714Y-52010499D02*
X106185714Y-51953356D01*
X106185714Y-51953356D02*
X106204762Y-51877165D01*
X106204762Y-51877165D02*
X106223809Y-51839070D01*
X106223809Y-51839070D02*
X106261904Y-51800975D01*
X106261904Y-51800975D02*
X106319047Y-51781927D01*
X106319047Y-51781927D02*
X106357143Y-51781927D01*
X106357143Y-51781927D02*
X106414285Y-51800975D01*
X106414285Y-51800975D02*
X106433333Y-51820022D01*
X106566666Y-51781927D02*
X106814285Y-51781927D01*
X106814285Y-51781927D02*
X106680952Y-51934308D01*
X106680952Y-51934308D02*
X106738095Y-51934308D01*
X106738095Y-51934308D02*
X106776190Y-51953356D01*
X106776190Y-51953356D02*
X106795238Y-51972403D01*
X106795238Y-51972403D02*
X106814285Y-52010499D01*
X106814285Y-52010499D02*
X106814285Y-52105737D01*
X106814285Y-52105737D02*
X106795238Y-52143832D01*
X106795238Y-52143832D02*
X106776190Y-52162880D01*
X106776190Y-52162880D02*
X106738095Y-52181927D01*
X106738095Y-52181927D02*
X106623809Y-52181927D01*
X106623809Y-52181927D02*
X106585714Y-52162880D01*
X106585714Y-52162880D02*
X106566666Y-52143832D01*
X104143832Y-60066666D02*
X104162880Y-60085714D01*
X104162880Y-60085714D02*
X104181927Y-60142856D01*
X104181927Y-60142856D02*
X104181927Y-60180952D01*
X104181927Y-60180952D02*
X104162880Y-60238095D01*
X104162880Y-60238095D02*
X104124784Y-60276190D01*
X104124784Y-60276190D02*
X104086689Y-60295237D01*
X104086689Y-60295237D02*
X104010499Y-60314285D01*
X104010499Y-60314285D02*
X103953356Y-60314285D01*
X103953356Y-60314285D02*
X103877165Y-60295237D01*
X103877165Y-60295237D02*
X103839070Y-60276190D01*
X103839070Y-60276190D02*
X103800975Y-60238095D01*
X103800975Y-60238095D02*
X103781927Y-60180952D01*
X103781927Y-60180952D02*
X103781927Y-60142856D01*
X103781927Y-60142856D02*
X103800975Y-60085714D01*
X103800975Y-60085714D02*
X103820022Y-60066666D01*
X103820022Y-59914285D02*
X103800975Y-59895237D01*
X103800975Y-59895237D02*
X103781927Y-59857142D01*
X103781927Y-59857142D02*
X103781927Y-59761904D01*
X103781927Y-59761904D02*
X103800975Y-59723809D01*
X103800975Y-59723809D02*
X103820022Y-59704761D01*
X103820022Y-59704761D02*
X103858118Y-59685714D01*
X103858118Y-59685714D02*
X103896213Y-59685714D01*
X103896213Y-59685714D02*
X103953356Y-59704761D01*
X103953356Y-59704761D02*
X104181927Y-59933333D01*
X104181927Y-59933333D02*
X104181927Y-59685714D01*
X109143832Y-58266666D02*
X109162880Y-58285714D01*
X109162880Y-58285714D02*
X109181927Y-58342856D01*
X109181927Y-58342856D02*
X109181927Y-58380952D01*
X109181927Y-58380952D02*
X109162880Y-58438095D01*
X109162880Y-58438095D02*
X109124784Y-58476190D01*
X109124784Y-58476190D02*
X109086689Y-58495237D01*
X109086689Y-58495237D02*
X109010499Y-58514285D01*
X109010499Y-58514285D02*
X108953356Y-58514285D01*
X108953356Y-58514285D02*
X108877165Y-58495237D01*
X108877165Y-58495237D02*
X108839070Y-58476190D01*
X108839070Y-58476190D02*
X108800975Y-58438095D01*
X108800975Y-58438095D02*
X108781927Y-58380952D01*
X108781927Y-58380952D02*
X108781927Y-58342856D01*
X108781927Y-58342856D02*
X108800975Y-58285714D01*
X108800975Y-58285714D02*
X108820022Y-58266666D01*
X109181927Y-57885714D02*
X109181927Y-58114285D01*
X109181927Y-57999999D02*
X108781927Y-57999999D01*
X108781927Y-57999999D02*
X108839070Y-58038095D01*
X108839070Y-58038095D02*
X108877165Y-58076190D01*
X108877165Y-58076190D02*
X108896213Y-58114285D01*
D11*
X105738095Y-63954819D02*
X105738095Y-64764342D01*
X105738095Y-64764342D02*
X105785714Y-64859580D01*
X105785714Y-64859580D02*
X105833333Y-64907200D01*
X105833333Y-64907200D02*
X105928571Y-64954819D01*
X105928571Y-64954819D02*
X106119047Y-64954819D01*
X106119047Y-64954819D02*
X106214285Y-64907200D01*
X106214285Y-64907200D02*
X106261904Y-64859580D01*
X106261904Y-64859580D02*
X106309523Y-64764342D01*
X106309523Y-64764342D02*
X106309523Y-63954819D01*
X106738095Y-64050057D02*
X106785714Y-64002438D01*
X106785714Y-64002438D02*
X106880952Y-63954819D01*
X106880952Y-63954819D02*
X107119047Y-63954819D01*
X107119047Y-63954819D02*
X107214285Y-64002438D01*
X107214285Y-64002438D02*
X107261904Y-64050057D01*
X107261904Y-64050057D02*
X107309523Y-64145295D01*
X107309523Y-64145295D02*
X107309523Y-64240533D01*
X107309523Y-64240533D02*
X107261904Y-64383390D01*
X107261904Y-64383390D02*
X106690476Y-64954819D01*
X106690476Y-64954819D02*
X107309523Y-64954819D01*
D12*
X105681927Y-54566666D02*
X105491451Y-54699999D01*
X105681927Y-54795237D02*
X105281927Y-54795237D01*
X105281927Y-54795237D02*
X105281927Y-54642856D01*
X105281927Y-54642856D02*
X105300975Y-54604761D01*
X105300975Y-54604761D02*
X105320022Y-54585714D01*
X105320022Y-54585714D02*
X105358118Y-54566666D01*
X105358118Y-54566666D02*
X105415260Y-54566666D01*
X105415260Y-54566666D02*
X105453356Y-54585714D01*
X105453356Y-54585714D02*
X105472403Y-54604761D01*
X105472403Y-54604761D02*
X105491451Y-54642856D01*
X105491451Y-54642856D02*
X105491451Y-54795237D01*
X105320022Y-54414285D02*
X105300975Y-54395237D01*
X105300975Y-54395237D02*
X105281927Y-54357142D01*
X105281927Y-54357142D02*
X105281927Y-54261904D01*
X105281927Y-54261904D02*
X105300975Y-54223809D01*
X105300975Y-54223809D02*
X105320022Y-54204761D01*
X105320022Y-54204761D02*
X105358118Y-54185714D01*
X105358118Y-54185714D02*
X105396213Y-54185714D01*
X105396213Y-54185714D02*
X105453356Y-54204761D01*
X105453356Y-54204761D02*
X105681927Y-54433333D01*
X105681927Y-54433333D02*
X105681927Y-54185714D01*
X107681927Y-54566666D02*
X107491451Y-54699999D01*
X107681927Y-54795237D02*
X107281927Y-54795237D01*
X107281927Y-54795237D02*
X107281927Y-54642856D01*
X107281927Y-54642856D02*
X107300975Y-54604761D01*
X107300975Y-54604761D02*
X107320022Y-54585714D01*
X107320022Y-54585714D02*
X107358118Y-54566666D01*
X107358118Y-54566666D02*
X107415260Y-54566666D01*
X107415260Y-54566666D02*
X107453356Y-54585714D01*
X107453356Y-54585714D02*
X107472403Y-54604761D01*
X107472403Y-54604761D02*
X107491451Y-54642856D01*
X107491451Y-54642856D02*
X107491451Y-54795237D01*
X107681927Y-54185714D02*
X107681927Y-54414285D01*
X107681927Y-54299999D02*
X107281927Y-54299999D01*
X107281927Y-54299999D02*
X107339070Y-54338095D01*
X107339070Y-54338095D02*
X107377165Y-54376190D01*
X107377165Y-54376190D02*
X107396213Y-54414285D01*
D13*
%TO.C,U1*%
X108700000Y-57371000D02*
G75*
G02*
X108500000Y-57371000I-100000J0D01*
G01*
X108500000Y-57371000D02*
G75*
G02*
X108700000Y-57371000I100000J0D01*
G01*
D14*
X108000000Y-56750000D02*
X108000000Y-57000000D01*
X107000000Y-56750000D02*
X108000000Y-56750000D01*
X105000000Y-56750000D02*
X106000000Y-56750000D01*
X105000000Y-57000000D02*
X105000000Y-56750000D01*
X105000000Y-61250000D02*
X105000000Y-61000000D01*
X106000000Y-61250000D02*
X105000000Y-61250000D01*
X108000000Y-61250000D02*
X108000000Y-61000000D01*
X107000000Y-61250000D02*
X108000000Y-61250000D01*
D15*
%TO.C,C5*%
X109510000Y-64359420D02*
X109510000Y-64640580D01*
X108490000Y-64359420D02*
X108490000Y-64640580D01*
%TO.C,C4*%
X103490000Y-64640580D02*
X103490000Y-64359420D01*
X104510000Y-64640580D02*
X104510000Y-64359420D01*
%TO.C,C3*%
X106359420Y-51490000D02*
X106640580Y-51490000D01*
X106359420Y-52510000D02*
X106640580Y-52510000D01*
%TO.C,C2*%
X104510000Y-59859420D02*
X104510000Y-60140580D01*
X103490000Y-59859420D02*
X103490000Y-60140580D01*
%TO.C,C1*%
X108490000Y-58340580D02*
X108490000Y-58059420D01*
X109510000Y-58340580D02*
X109510000Y-58059420D01*
%TO.C,J1*%
X100070000Y-53810000D02*
X101450000Y-53810000D01*
X100070000Y-55190000D02*
X100070000Y-53810000D01*
X100070000Y-56460000D02*
X100070000Y-64190000D01*
X100070000Y-56460000D02*
X102830000Y-56460000D01*
X100070000Y-64190000D02*
X102830000Y-64190000D01*
X102830000Y-56460000D02*
X102830000Y-64190000D01*
%TO.C,U2*%
X104940000Y-64500000D02*
X104940000Y-65300000D01*
X104940000Y-64500000D02*
X104940000Y-63700000D01*
X108060000Y-64500000D02*
X108060000Y-65300000D01*
X108060000Y-64500000D02*
X108060000Y-63700000D01*
X104990000Y-65800000D02*
X104660000Y-66040000D01*
X104660000Y-65560000D01*
X104990000Y-65800000D01*
G36*
X104990000Y-65800000D02*
G01*
X104660000Y-66040000D01*
X104660000Y-65560000D01*
X104990000Y-65800000D01*
G37*
%TO.C,R2*%
X106022500Y-54262742D02*
X106022500Y-54737258D01*
X104977500Y-54262742D02*
X104977500Y-54737258D01*
%TO.C,R1*%
X108022500Y-54262742D02*
X108022500Y-54737258D01*
X106977500Y-54262742D02*
X106977500Y-54737258D01*
%TD*%
M02*
